HIERARCHY
ROOT Hips
{
	OFFSET 0.000000 0.000000 0.000000
	CHANNELS 6 Xposition Yposition Zposition Xrotation Yrotation Zrotation
	JOINT LeftUpLeg_virtual
	{
		OFFSET 0.000000 0.000000 0.000000
		CHANNELS 3 Xrotation Yrotation Zrotation
		JOINT LeftUpLeg
		{
			OFFSET 15.427100 -6.655098 0.678600
			CHANNELS 3 Xrotation Yrotation Zrotation
			JOINT LeftLeg
			{
				OFFSET 4.081073 -39.591068 13.024000
				CHANNELS 3 Xrotation Yrotation Zrotation
				JOINT LeftFoot
				{
					OFFSET -4.081074 -37.707932 -15.979700
					CHANNELS 3 Xrotation Yrotation Zrotation
					JOINT LeftToeBase
					{
						OFFSET 5.346399 -15.068900 20.645000
						CHANNELS 3 Xrotation Yrotation Zrotation
						JOINT LeftToe_End
						{
							OFFSET 2.754700 0.931300 11.300900
							CHANNELS 3 Xrotation Yrotation Zrotation
							End Site
							{
								OFFSET 0 0 0
							}
						}
					}
				}
			}
		}
	}
	JOINT RightUpLeg_virtual
	{
		OFFSET 0.000000 0.000000 0.000000
		CHANNELS 3 Xrotation Yrotation Zrotation
		JOINT RightUpLeg
		{
			OFFSET -15.569500 -6.655098 0.678600
			CHANNELS 3 Xrotation Yrotation Zrotation
			JOINT RightLeg
			{
				OFFSET -4.081825 -39.591045 13.023800
				CHANNELS 3 Xrotation Yrotation Zrotation
				JOINT RightFoot
				{
					OFFSET 4.081824 -37.707954 -15.979600
					CHANNELS 3 Xrotation Yrotation Zrotation
					JOINT RightToeBase
					{
						OFFSET -5.346400 -15.068900 20.645000
						CHANNELS 3 Xrotation Yrotation Zrotation
						JOINT RightToe_End
						{
							OFFSET -2.754700 0.931300 11.300900
							CHANNELS 3 Xrotation Yrotation Zrotation
							End Site
							{
								OFFSET 0 0 0
							}
						}
					}
				}
			}
		}
	}
	JOINT Spine_virtual
	{
		OFFSET 0.000000 0.000000 0.000000
		CHANNELS 3 Xrotation Yrotation Zrotation
		JOINT Spine
		{
			OFFSET -0.279200 12.230698 -2.892100
			CHANNELS 3 Xrotation Yrotation Zrotation
			JOINT Spine1
			{
				OFFSET -0.232667 10.192268 -1.242267
				CHANNELS 3 Xrotation Yrotation Zrotation
				JOINT Spine1_split
				{
					OFFSET -0.232667 10.192268 -1.242267
					CHANNELS 3 Xrotation Yrotation Zrotation
					JOINT Spine2
					{
						OFFSET -0.232667 10.192268 -1.242267
						CHANNELS 3 Xrotation Yrotation Zrotation
						JOINT Neck_virtual
						{
							OFFSET 0.000000 0.000000 0.000000
							CHANNELS 3 Xrotation Yrotation Zrotation
							JOINT Neck
							{
								OFFSET -0.418800 17.814194 8.416900
								CHANNELS 3 Xrotation Yrotation Zrotation
								JOINT Head
								{
									OFFSET 0.000000 7.031097 3.806800
									CHANNELS 3 Xrotation Yrotation Zrotation
									JOINT HeadTop_End
									{
										OFFSET 0.000000 24.646606 12.978600
										CHANNELS 3 Xrotation Yrotation Zrotation
										End Site
										{
											OFFSET 0 0 0
										}
									}
								}
							}
						}
						JOINT LeftShoulder_virtual
						{
							OFFSET 0.000000 0.000000 0.000000
							CHANNELS 3 Xrotation Yrotation Zrotation
							JOINT LeftShoulder
							{
								OFFSET 8.476499 7.247704 -3.868750
								CHANNELS 3 Xrotation Yrotation Zrotation
								JOINT LeftShoulder_split
								{
									OFFSET 8.476499 7.247704 -3.868750
									CHANNELS 3 Xrotation Yrotation Zrotation
									JOINT LeftArm
									{
										OFFSET 9.308998 -2.777710 0.208600
										CHANNELS 3 Xrotation Yrotation Zrotation
										JOINT LeftForeArm
										{
											OFFSET 29.972298 0.000000 0.000000
											CHANNELS 3 Xrotation Yrotation Zrotation
											JOINT LeftHand
											{
												OFFSET 26.026505 0.000000 0.000000
												CHANNELS 3 Xrotation Yrotation Zrotation
												End Site
												{
													OFFSET 0 0 0
												}
											}
										}
									}
								}
							}
						}
						JOINT RightShoulder_virtual
						{
							OFFSET 0.000000 0.000000 0.000000
							CHANNELS 3 Xrotation Yrotation Zrotation
							JOINT RightShoulder
							{
								OFFSET -7.570500 7.247704 -3.868750
								CHANNELS 3 Xrotation Yrotation Zrotation
								JOINT RightShoulder_split
								{
									OFFSET -7.570500 7.247704 -3.868750
									CHANNELS 3 Xrotation Yrotation Zrotation
									JOINT RightArm
									{
										OFFSET -9.308998 -2.777710 0.208500
										CHANNELS 3 Xrotation Yrotation Zrotation
										JOINT RightForeArm
										{
											OFFSET -29.972300 0.000000 0.000000
											CHANNELS 3 Xrotation Yrotation Zrotation
											JOINT RightHand
											{
												OFFSET -26.026505 0.000000 0.000000
												CHANNELS 3 Xrotation Yrotation Zrotation
												End Site
												{
													OFFSET 0 0 0
												}
											}
										}
									}
								}
							}
						}
					}
				}
			}
		}
	}
}
MOTION
Frames: 10
Frame Time: 0.03333333
1.813308 73.817055 -1.539978 0.000000 0.000000 0.000000 -9.611372 -53.165100 -2.766898 -25.839085 8.922806 26.760461 49.868516 -2.606113 2.411972 -17.423459 -9.441867 -14.575631 -4.965703 0.425572 0.739413 0.000000 0.000000 0.000000 -9.843684 -50.769626 -1.982568 -15.879577 -8.929961 -39.939132 55.720898 4.791712 -0.646845 -28.129871 -14.830649 23.544839 1.557822 0.958994 0.468771 0.000000 0.000000 0.000000 -9.364000 -51.329637 -3.114361 11.575596 7.871333 -2.315587 0.632476 1.508463 -0.648774 0.271346 -0.224379 1.296589 0.000000 0.000000 0.000000 0.491716 2.086685 -0.565867 3.158882 14.431963 5.776437 6.654666 19.288681 -2.219835 0.000000 0.000000 0.000000 2.469198 1.312248 -0.103444 1.258336 4.082966 -7.095177 -4.998215 -4.640360 -4.174100 -51.243378 7.075395 -46.674706 179.042727 -72.691108 -178.679921 0.000000 0.000000 0.000000 2.448762 1.684476 -0.518565 3.790511 10.927142 -5.849513 0.823228 -4.456525 -1.443202 -49.916310 21.450781 87.077556 177.335507 72.033033 -176.904167 0.000000 0.000000 0.000000 
2.140205 73.120819 -0.910095 0.000000 0.000000 0.000000 -10.338403 -54.130513 -3.134084 -27.221987 7.801051 26.900008 52.334224 -2.478789 1.935699 -16.343736 -8.796242 -15.900631 -7.187762 0.370052 0.638683 0.000000 0.000000 0.000000 -10.882950 -52.131320 -2.431546 -16.374076 -9.323781 -40.853250 57.343686 5.736739 -0.515917 -29.419035 -15.025868 23.666372 2.380850 0.889121 0.595694 0.000000 0.000000 0.000000 -9.335655 -51.759682 -2.932735 12.090168 8.069137 -2.355410 0.826440 1.363689 -0.633966 0.663173 -0.222571 1.442499 0.000000 0.000000 0.000000 0.557353 1.962308 -0.599651 3.208873 14.375911 5.732998 6.756359 19.249785 -2.034411 0.000000 0.000000 0.000000 2.439969 1.245664 -0.056659 1.155469 3.771677 -7.475545 -2.650878 -6.558181 -3.378341 -53.222361 7.166509 -47.393078 175.714048 -72.772210 177.609138 0.000000 0.000000 0.000000 2.449629 1.592764 -0.523927 3.843978 11.486889 -5.788139 1.326426 -4.725136 -0.423267 -51.151263 23.616219 87.339821 177.862825 72.564585 -177.236483 0.000000 0.000000 0.000000 
2.224780 71.544449 0.116306 0.000000 0.000000 0.000000 -10.606841 -55.084881 -3.082063 -29.746898 6.104596 28.131570 57.461787 -4.051131 0.389828 -16.318261 -9.761591 -17.487875 -11.179994 -0.458729 3.343923 0.000000 0.000000 0.000000 -11.314530 -53.129723 -2.434413 -16.816107 -8.383472 -42.242490 59.294375 7.197210 -0.922845 -29.981703 -15.446073 24.577223 1.677680 0.754806 1.161724 0.000000 0.000000 0.000000 -9.493398 -52.770117 -2.725228 13.180321 8.501732 -2.259472 0.765807 1.215541 -0.798697 0.813761 -0.235113 1.183891 0.000000 0.000000 0.000000 0.222210 1.759455 -0.774540 2.776042 14.494850 5.771775 7.431629 19.142368 -1.623540 0.000000 0.000000 0.000000 2.188166 1.148896 -0.157407 1.005527 3.445072 -8.204473 -0.823213 -7.268772 -2.161713 -53.615045 6.803486 -47.870815 170.988267 -73.209369 172.494638 0.000000 0.000000 0.000000 2.048952 1.434237 -0.641404 3.800110 12.112383 -5.561541 1.233990 -4.137445 0.100925 -52.129223 24.566999 86.689423 178.558808 73.552231 -178.257036 0.000000 0.000000 0.000000 
2.221617 69.322975 1.489197 0.000000 0.000000 0.000000 -10.517686 -56.117698 -2.749150 -33.419484 3.617304 30.460936 64.582273 -7.540263 -1.482369 -16.725865 -11.996334 -19.621323 -13.716832 -1.744448 6.930651 0.000000 0.000000 0.000000 -10.981524 -53.647321 -1.898227 -17.423809 -6.313974 -44.080948 61.054405 8.937989 -1.736791 -29.967411 -15.842796 25.861318 0.147217 0.570207 1.905548 0.000000 0.000000 0.000000 -9.807814 -54.412504 -2.608135 14.678681 9.058007 -2.022835 0.497194 1.164963 -1.108182 0.771852 0.318139 0.793293 0.000000 0.000000 0.000000 -0.451970 1.623952 -1.030044 1.770901 14.741210 5.862244 8.356678 19.238150 -1.223136 0.000000 0.000000 0.000000 1.687661 1.090136 -0.369218 0.867805 3.390535 -8.978545 0.488862 -6.529857 -0.768436 -51.866056 7.319784 -47.341199 167.466622 -72.921627 168.690154 0.000000 0.000000 0.000000 1.272182 1.301194 -0.872644 3.642706 12.695618 -5.349629 0.996374 -2.865365 0.213305 -52.802201 24.071077 85.395096 -179.888932 74.612700 179.401544 0.000000 0.000000 0.000000 
2.460705 66.690582 3.016674 0.000000 0.000000 0.000000 -10.026060 -57.393410 -2.103257 -37.550638 0.378165 33.441159 71.577425 -11.612070 -3.249494 -17.586456 -14.616139 -20.887483 -14.148202 -2.966423 9.698842 0.000000 0.000000 0.000000 -10.364599 -53.836135 -1.127578 -18.666714 -3.411056 -46.503220 62.444240 10.716148 -2.627142 -29.471576 -15.867347 27.056266 -0.344717 0.461144 2.452053 0.000000 0.000000 0.000000 -10.116565 -56.357209 -2.511739 16.344829 9.523895 -1.638817 0.051980 1.240332 -1.500520 0.721435 0.846063 0.376796 0.000000 0.000000 0.000000 -1.276510 1.631873 -1.303998 0.412053 15.200601 5.898563 9.136654 19.859945 -1.105348 0.000000 0.000000 0.000000 0.984412 1.127615 -0.643566 0.753747 3.704774 -9.589938 1.175144 -4.871433 1.032582 -48.135509 9.798597 -45.502850 168.261669 -70.622380 169.348748 0.000000 0.000000 0.000000 0.253820 1.224782 -1.196121 3.347963 13.045155 -5.403403 0.720900 -1.799100 0.190162 -53.411219 23.191209 84.272616 -177.361011 75.587163 175.793961 0.000000 0.000000 0.000000 
3.090857 63.998116 4.913166 0.000000 0.000000 0.000000 -9.406328 -58.771189 -1.304022 -41.335038 -3.811672 36.881485 77.056070 -15.705771 -4.017327 -16.972817 -16.734749 -22.654788 -14.391576 -3.750686 10.886266 0.000000 0.000000 0.000000 -9.532212 -54.391754 -0.206222 -21.033609 -0.233180 -49.815968 63.368917 12.391706 -3.200629 -28.065585 -15.291902 28.190644 0.378006 0.523404 2.462734 0.000000 0.000000 0.000000 -10.222473 -58.053739 -2.329519 17.805147 9.696972 -1.159408 -0.466274 1.422721 -1.845067 0.445694 0.872674 0.264658 0.000000 0.000000 0.000000 -2.015706 1.773331 -1.503802 -0.990887 15.888895 5.690064 9.581017 21.333454 -1.552687 0.000000 0.000000 0.000000 0.212756 1.266373 -0.886472 0.678135 4.422866 -9.853600 1.360377 -3.117549 2.894449 -44.376081 13.859177 -42.910240 172.474721 -66.035300 173.472052 0.000000 0.000000 0.000000 -0.765621 1.237441 -1.518182 3.003921 12.977733 -5.905487 0.626856 -1.324357 0.293959 -54.165927 23.637191 84.498832 -173.973633 76.628288 171.408952 0.000000 0.000000 0.000000 
4.051809 61.641720 7.555862 0.000000 0.000000 0.000000 -8.692323 -60.459728 -0.539254 -43.743636 -8.573779 40.306343 79.576676 -18.978944 -3.692792 -13.583026 -17.609925 -25.906255 -16.075111 -3.903240 9.862330 0.000000 0.000000 0.000000 -8.945853 -55.691163 0.457986 -24.093475 2.796126 -54.026182 63.226494 14.137001 -3.336352 -25.333419 -13.858096 29.976877 0.884588 0.692446 1.744381 0.000000 0.000000 0.000000 -10.128990 -59.589931 -2.184749 18.803441 9.203036 -0.757716 -0.953484 1.599263 -2.003625 0.234767 0.741858 0.673209 0.000000 0.000000 0.000000 -2.414753 1.903884 -1.529517 -2.142240 16.920494 5.257256 9.608064 23.650910 -2.644773 0.000000 0.000000 0.000000 -0.461016 1.404562 -1.034382 0.595528 5.480817 -9.813347 1.106016 -2.157533 4.323972 -42.124611 18.331128 -40.370687 176.747742 -60.813573 177.754143 0.000000 0.000000 0.000000 -1.545968 1.253068 -1.677745 2.600731 12.418660 -6.741537 0.953104 -1.695491 1.040298 -55.335215 26.898128 86.075232 -170.518678 77.461776 167.405915 0.000000 0.000000 0.000000 
5.224170 59.785057 10.576145 0.000000 0.000000 0.000000 -7.950408 -62.293190 0.042960 -43.897172 -12.087469 43.696309 77.348061 -19.702943 -3.688745 -9.382627 -16.174982 -28.383445 -18.064242 -3.154972 6.368267 0.000000 0.000000 0.000000 -8.771310 -57.633143 0.606586 -26.515175 5.249251 -58.771695 61.455112 15.944749 -3.059777 -21.361149 -11.335085 32.319554 0.213309 0.962462 0.543777 0.000000 0.000000 0.000000 -9.952065 -60.860093 -2.250565 19.108708 7.874631 -0.624063 -1.309971 1.590713 -1.852775 0.151673 0.148460 1.102071 0.000000 0.000000 0.000000 -2.396535 1.833634 -1.323473 -2.707786 18.308382 4.634082 9.181361 26.698685 -4.274907 0.000000 0.000000 0.000000 -0.863468 1.432183 -0.998487 0.516245 6.756785 -9.567206 0.707594 -2.097444 4.970276 -42.234570 21.293856 -38.368451 179.731920 -58.850003 -179.306386 0.000000 0.000000 0.000000 -1.866595 1.173237 -1.576666 2.118820 11.353549 -7.596706 1.052189 -2.347612 2.135786 -57.132354 33.464010 88.782214 -168.548442 77.722731 165.428561 0.000000 0.000000 0.000000 
6.366659 58.433723 13.995022 0.000000 0.000000 0.000000 -7.333250 -63.949962 0.122941 -42.259828 -13.796180 46.971156 70.356174 -17.701694 -3.995090 -5.709053 -12.386505 -29.668487 -17.146758 -1.632492 1.255031 0.000000 0.000000 0.000000 -8.855239 -59.926755 0.175095 -27.000648 6.569996 -63.417617 57.430956 17.534981 -2.324968 -16.652471 -8.046852 34.104859 -1.811149 1.311768 -0.474103 0.000000 0.000000 0.000000 -9.583659 -61.758420 -2.578743 18.533020 5.619735 -0.879467 -1.383126 1.345160 -1.328937 0.871708 -0.244778 1.497393 0.000000 0.000000 0.000000 -2.062572 1.483839 -0.852026 -2.734641 19.803816 3.895340 8.383928 30.072934 -6.171696 0.000000 0.000000 0.000000 -0.864269 1.212280 -0.715113 0.390516 7.792138 -9.038074 0.925941 -2.606465 5.165174 -44.955796 21.575108 -36.702339 -178.063073 -63.976743 -177.184328 0.000000 0.000000 0.000000 -1.591283 0.942496 -1.148203 1.617013 9.888937 -8.380706 0.339405 -2.767045 2.973030 -58.372415 42.451203 91.237899 -168.770109 77.315815 166.064220 0.000000 0.000000 0.000000 
7.329609 57.550323 18.175961 0.000000 0.000000 0.000000 -6.945239 -64.907055 -0.531601 -40.351064 -14.300970 50.143212 59.849881 -14.500917 -3.877894 -2.566194 -8.119149 -31.307371 -11.776365 -0.290999 -3.786448 0.000000 0.000000 0.000000 -9.153568 -61.565023 -0.980456 -24.830786 6.387797 -67.118473 51.292163 18.614743 -1.220106 -11.922796 -4.609569 34.334733 -4.706669 1.614170 -0.592822 0.000000 0.000000 0.000000 -8.984282 -62.055014 -3.164113 17.266865 2.540105 -1.725606 -1.233700 0.847757 -0.458021 1.787263 -0.638203 1.828749 0.000000 0.000000 0.000000 -1.598562 0.850203 -0.122954 -2.663093 21.140713 3.320819 7.304341 33.271231 -7.862142 0.000000 0.000000 0.000000 -0.486785 0.692558 -0.133510 0.201443 8.156188 -8.108912 0.869590 -2.433073 4.791656 -49.580528 19.515577 -35.104474 -173.436863 -78.563841 -172.553296 0.000000 0.000000 0.000000 -0.886479 0.498202 -0.387160 1.134382 8.056801 -8.877209 -1.012160 -2.913744 3.010379 -55.968527 51.880478 90.220549 -170.515768 76.424018 168.459745 0.000000 0.000000 0.000000 
